<svg width="64" height="64" viewBox="0 0 64 64" fill="none" xmlns="http://www.w3.org/2000/svg">
<g clip-path="url(#clip0_16_2)">
<circle cx="32" cy="32" r="32" fill="#F9F9F8"/>
<circle cx="32" cy="32" r="32" stroke="#333333"/>
<path d="M11.8023 45H4.00234L14.6023 17H22.6023L33.2023 45H25.4023L23.6023 40H13.6023L11.8023 45ZM15.4023 34.8H21.8023L18.6023 25.4L15.4023 34.8ZM34.3608 39.2C41.6674 39.6 46.6141 39.8 49.2008 39.8C49.8141 39.8 50.2941 39.6267 50.6408 39.28C51.0141 38.9067 51.2008 38.4133 51.2008 37.8V34.2H42.0008C39.2008 34.2 37.1608 33.5733 35.8808 32.32C34.6274 31.04 34.0008 29 34.0008 26.2V25C34.0008 22.2 34.6274 20.1733 35.8808 18.92C37.1608 17.64 39.2008 17 42.0008 17H56.0408V22.6H43.6008C42.0008 22.6 41.2008 23.4 41.2008 25V25.8C41.2008 27.4 42.0008 28.2 43.6008 28.2H50.8008C53.4141 28.2 55.3341 28.8133 56.5608 30.04C57.7874 31.2667 58.4008 33.1867 58.4008 35.8V37.8C58.4008 40.4133 57.7874 42.3333 56.5608 43.56C55.3341 44.7867 53.4141 45.4 50.8008 45.4C49.4408 45.4 48.0008 45.3733 46.4808 45.32L42.8008 45.16C40.0808 45.0267 37.2674 44.84 34.3608 44.6V39.2Z" fill="#333333"/>
</g>
<defs>
<clipPath id="clip0_16_2">
<rect width="64" height="64" fill="white"/>
</clipPath>
</defs>
</svg>
